<svg width="51" height="45" viewBox="0 0 51 45" fill="none" xmlns="http://www.w3.org/2000/svg">
<path fill-rule="evenodd" clip-rule="evenodd" d="M12.348 0.0690567C12.1643 0.110439 11.4876 0.25919 10.8443 0.399474C5.91365 1.47525 2.01636 5.07772 0.461524 9.99659C0.0814192 11.1986 0.0152558 11.7112 0.000886984 13.5577C-0.0198308 16.239 0.318505 17.7293 1.4254 19.8313C2.17075 21.2468 2.81667 22.1116 4.03769 23.3288L5.10432 24.3921L4.67677 25.0398C4.14596 25.8438 3.8666 26.9858 4.01263 27.7538C4.39123 29.7454 5.92184 31.0847 7.91443 31.1676C8.73612 31.2018 8.75584 31.2141 8.75584 31.698C8.75584 33.9085 10.6425 35.7666 12.8872 35.7666H13.5547L13.6432 36.6994C13.8406 38.7803 15.296 40.1713 17.4737 40.3601L18.4464 40.4445L18.4481 41.1812C18.4503 42.1605 19.0755 43.4096 19.8815 44.0451C21.4098 45.2496 23.2854 45.3174 25.0761 44.2326C25.4019 44.0353 25.5344 44.0617 26.3292 44.4817C27.4779 45.0889 29.1687 45.1419 30.2255 44.6041C31.5708 43.9195 32.4707 42.5427 32.4774 41.159L32.4811 40.4001L33.2747 40.3966C34.6802 40.3903 36.2049 39.4857 36.851 38.2746C37.041 37.9184 37.236 37.2086 37.2846 36.6968L37.3728 35.7666H38.0403C39.181 35.7666 40.0321 35.4247 40.8643 34.6323C41.6566 33.8777 42.1717 32.7455 42.1717 31.7581C42.1717 31.3552 42.2357 31.3144 43.0326 31.2096C45.1019 30.9375 46.421 29.8473 46.839 28.0639C47.0649 27.1 46.8195 25.8339 46.2459 25.0052L45.8147 24.382L46.8942 23.3238C49.8172 20.4583 51.2524 16.7546 50.9636 12.8235C50.539 7.04904 46.4609 2.21597 40.5844 0.523301C39.2693 0.144471 38.7872 0.0890288 36.7416 0.08104C34.2374 0.0712936 33.1116 0.263984 31.0883 1.0488C28.9935 1.86143 27.571 2.95653 22.8371 7.40023C17.734 12.1906 17.3611 12.6682 17.3862 14.3829C17.4027 15.5154 18.0541 16.8922 18.8468 17.4704C19.5984 18.0186 20.6719 18.3513 21.6838 18.3494C23.0628 18.3468 23.9701 17.8191 26.0457 15.8116C27.055 14.8356 27.9357 14.037 28.003 14.037C28.0704 14.037 28.4852 14.2553 28.9248 14.5221C31.7869 16.2587 35.8451 15.9507 38.4542 13.7988C39.1776 13.2022 39.3547 12.6853 38.9638 12.3114C38.6283 11.9906 38.0355 12.0954 37.4575 12.5779C37.1556 12.8299 36.4952 13.2434 35.9897 13.4966C35.139 13.9229 34.9343 13.9571 33.2329 13.9571C31.6016 13.9571 31.2918 13.9105 30.4761 13.5422C29.9707 13.314 29.2347 12.8679 28.8406 12.5511C28.381 12.1814 28.0214 12.0083 27.8381 12.0686C27.6809 12.1202 26.5372 13.1157 25.2967 14.2808C24.0561 15.4459 22.8769 16.4789 22.6762 16.5762C22.0958 16.8577 20.7668 16.7898 20.1819 16.4487C19.6242 16.1235 18.9477 14.9767 18.9477 14.3566C18.9477 13.4586 19.6862 12.6009 23.9136 8.58928C28.4154 4.31735 29.4924 3.44449 31.1993 2.68491C34.3297 1.29166 38.5436 1.21098 41.5685 2.48647C45.0451 3.95226 47.682 6.7461 48.8599 10.2118C49.3075 11.5285 49.4774 14.3578 49.2004 15.8789C48.7743 18.2192 47.5941 20.403 45.6997 22.3569L44.7041 23.3839L40.6315 19.5093C38.3915 17.3783 36.4851 15.6348 36.3951 15.6348C36.0404 15.6348 35.4885 16.1509 35.4885 16.4827C35.4885 16.7288 36.9074 18.1883 40.2561 21.3867C45.3158 26.2193 45.5148 26.4687 45.2777 27.6777C45.0379 28.8996 43.6032 29.8184 42.2688 29.605C41.6648 29.5083 41.2426 29.1699 38.57 26.6397C36.7222 24.8901 35.4274 23.7843 35.2284 23.7858C34.7029 23.7898 34.4302 24.0438 34.4317 24.5282C34.4329 24.902 34.9099 25.4308 37.1469 27.5381C38.6395 28.9441 40.0047 30.3613 40.1808 30.6873C40.8731 31.9693 40.3965 33.2921 38.9958 33.9761C38.1501 34.389 37.4268 34.3498 36.5745 33.8451C36.2988 33.6817 34.8753 32.3935 33.411 30.9826C31.6083 29.245 30.6322 28.4169 30.3878 28.4169C29.9938 28.4169 29.4737 28.8729 29.4737 29.2183C29.4737 29.3377 30.7807 30.698 32.3782 32.2414C33.9756 33.7849 35.3665 35.2046 35.4691 35.3965C35.7644 35.9489 35.6913 37.0667 35.3223 37.6454C34.7846 38.4888 34.0615 38.8298 32.9546 38.7619C31.5521 38.6761 31.4034 38.4911 31.9406 37.5008C33.3324 34.9356 31.3602 31.6784 28.3828 31.6245L27.7098 31.6124L27.5247 30.4888C27.3122 29.1979 26.7787 28.3375 25.811 27.725C25.0954 27.2722 24.1276 26.9811 23.3335 26.9798C22.8151 26.9789 22.7905 26.9511 22.7905 26.3636C22.7905 24.3466 21.0958 22.6577 18.8122 22.3991L17.9452 22.3008L17.9415 21.5642C17.9347 20.1988 16.9389 18.8036 15.5225 18.1752C14.6297 17.779 12.9126 17.7775 12.0139 18.172C11.6094 18.3497 10.3565 19.4188 8.83971 20.8805L6.33402 23.2956L5.36731 22.3812C1.03644 18.284 0.333041 11.8719 3.6798 6.99807C4.41211 5.93173 6.09527 4.27213 7.00151 3.72298C7.27719 3.55601 7.54034 3.37451 7.58628 3.31986C7.80215 3.06278 10.4722 2.05827 11.5456 1.83011C13.2404 1.46981 15.7311 1.49841 17.3708 1.89674C19.0464 2.30369 21.1394 3.29462 22.2122 4.18873C23.3221 5.11367 23.7129 5.30157 24.1074 5.09961C24.9375 4.67493 24.6551 4.01952 23.1556 2.89039C21.8137 1.87996 19.8202 0.914912 18.1123 0.449005C16.8999 0.118268 13.209 -0.125071 12.348 0.0690567ZM14.4619 19.4734C15.2196 19.6747 16.2647 20.7404 16.2996 21.3473C16.3387 22.03 16.2564 22.7216 16.1048 22.9819C16.029 23.1123 14.5141 24.6065 12.7383 26.3024C10.3219 28.6104 9.35599 29.4302 8.89836 29.5612C6.84646 30.1492 4.97266 28.166 5.8119 26.2947C5.93872 26.0119 7.48086 24.4145 9.23886 22.7448C11.6132 20.4897 12.596 19.6608 13.06 19.5217C13.8589 19.282 13.7542 19.2855 14.4619 19.4734ZM19.2892 24.1023C20.1882 24.3411 20.9728 25.2047 21.0746 26.0675C21.2258 27.351 20.9981 27.6666 17.5678 30.925C15.0014 33.3627 14.2168 34.017 13.678 34.1688C12.2276 34.5775 10.6366 33.6027 10.4717 32.2042C10.3194 30.9113 10.5438 30.6024 14.0638 27.2631C17.6391 23.8712 17.8774 23.7271 19.2892 24.1023ZM24.5338 28.8986C25.3398 29.2803 25.7861 29.8211 25.913 30.5692C26.1269 31.8291 25.976 32.0462 22.7437 35.1332C19.0082 38.7007 18.8401 38.8292 17.9111 38.828C16.1581 38.8257 15.1655 37.7949 15.3102 36.1272L15.3852 35.2618L18.6284 32.143C20.4121 30.4275 22.0971 28.9261 22.3728 28.8066C23.0832 28.4985 23.7494 28.5268 24.5338 28.8986ZM29.4722 33.5065C30.1119 33.8347 30.8125 34.9295 30.8066 35.5919C30.7986 36.4995 30.1395 37.3199 27.1102 40.1927C25.4235 41.7922 23.8319 43.1762 23.5733 43.2684C22.9061 43.506 22.0193 43.4758 21.4542 43.1963C20.8363 42.8908 20.1866 42.0659 20.0389 41.3992C19.8065 40.3509 20.1687 39.834 23.1875 36.9064C26.6864 33.5133 27.0911 33.2102 28.123 33.2102C28.5551 33.2102 29.1484 33.3405 29.4722 33.5065ZM30.6619 39.9607C31.1944 41.1822 30.6566 42.6112 29.4374 43.2141C28.797 43.5307 27.4025 43.441 27.0012 43.0573C26.7454 42.8126 26.85 42.6748 28.4727 41.1176C29.4334 40.1957 30.2681 39.4414 30.3276 39.4414C30.3869 39.4414 30.5375 39.675 30.6619 39.9607Z" fill="black"/>
</svg>
