<svg width="58" height="47" viewBox="0 0 58 47" fill="none" xmlns="http://www.w3.org/2000/svg">
<path fill-rule="evenodd" clip-rule="evenodd" d="M28.5937 0.202586C28.5937 0.314009 28.3639 0.405172 28.0831 0.405172C27.8023 0.405172 27.5725 0.496336 27.5725 0.607759C27.5725 0.719181 27.3981 0.810345 27.1848 0.810345C26.7153 0.810345 23.6919 3.69173 23.6919 4.13924C23.6919 4.31387 23.6 4.4569 23.4877 4.4569C23.3753 4.4569 23.2834 4.63922 23.2834 4.86207C23.2834 5.08491 23.1915 5.26724 23.0792 5.26724C22.9669 5.26724 22.875 5.72306 22.875 6.28017C22.875 6.83728 22.783 7.2931 22.6707 7.2931C22.5584 7.2931 22.4665 7.74892 22.4665 8.30604C22.4665 8.86315 22.5584 9.31897 22.6707 9.31897C22.783 9.31897 22.875 9.68362 22.875 10.1293C22.875 10.575 22.9669 10.9397 23.0792 10.9397C23.1915 10.9397 23.2834 11.2131 23.2834 11.5474C23.2834 11.8817 23.3753 12.1552 23.4877 12.1552C23.6 12.1552 23.6919 12.3174 23.6919 12.5156C23.6919 12.7139 23.8757 13.0075 24.1004 13.1681C24.3251 13.3288 24.5089 13.5775 24.5089 13.721C24.5089 14.0331 30.3334 19.8534 30.6457 19.8534C30.7652 19.8534 31.4042 20.4004 32.0658 21.069C32.7273 21.7375 33.3715 22.2845 33.4975 22.2845C33.6233 22.2845 34.1737 22.7403 34.7209 23.2974C35.2681 23.8545 35.8391 24.3103 35.9901 24.3103C36.1412 24.3103 36.3971 24.4927 36.5591 24.7155C36.9345 25.2321 37.4091 25.2321 37.7845 24.7155C37.9465 24.4927 38.2024 24.3103 38.3535 24.3103C38.5045 24.3103 39.0755 23.8545 39.6227 23.2974C40.1698 22.7403 40.7203 22.2845 40.8461 22.2845C40.9721 22.2845 41.6163 21.7375 42.2778 21.069C42.9394 20.4004 43.5784 19.8534 43.6979 19.8534C44.0102 19.8534 49.8347 14.0331 49.8347 13.721C49.8347 13.5775 50.0185 13.3288 50.2432 13.1681C50.4679 13.0075 50.6517 12.7139 50.6517 12.5156C50.6517 12.3174 50.7436 12.1552 50.8559 12.1552C50.9683 12.1552 51.0602 11.8762 51.0602 11.5355C51.0602 11.1738 51.1453 10.9678 51.2644 11.0409C51.388 11.1167 51.4686 10.8365 51.4686 10.3319C51.4686 9.82725 51.5493 9.54708 51.6729 9.62284C51.8018 9.70185 51.8771 9.2197 51.8771 8.31799C51.8771 7.49974 51.7897 6.88793 51.6729 6.88793C51.5606 6.88793 51.4686 6.52328 51.4686 6.07759C51.4686 5.6319 51.3767 5.26724 51.2644 5.26724C51.1521 5.26724 51.0602 5.08491 51.0602 4.86207C51.0602 4.63922 50.9683 4.4569 50.8559 4.4569C50.7436 4.4569 50.6517 4.3161 50.6517 4.1439C50.6517 3.9717 50.445 3.61961 50.1921 3.36151C49.9393 3.10322 49.5974 2.69723 49.4322 2.45899C49.2669 2.22075 49.0594 2.02586 48.9708 2.02586C48.8823 2.02586 48.5212 1.75237 48.1687 1.4181C47.816 1.08384 47.4032 0.810345 47.2515 0.810345C47.0995 0.810345 46.9753 0.719181 46.9753 0.607759C46.9753 0.496336 46.6996 0.405172 46.3626 0.405172C46.0256 0.405172 45.7499 0.314009 45.7499 0.202586C45.7499 0.0810345 44.9329 0 43.7075 0C42.4821 0 41.6651 0.0810345 41.6651 0.202586C41.6651 0.314009 41.4813 0.405172 41.2566 0.405172C41.0319 0.405172 40.8481 0.496336 40.8481 0.607759C40.8481 0.719181 40.6643 0.810345 40.4396 0.810345C40.215 0.810345 40.0312 0.901509 40.0312 1.01293C40.0312 1.12435 39.8843 1.21552 39.7046 1.21552C39.5251 1.21552 39.1205 1.48901 38.8057 1.82328C38.491 2.15754 38.117 2.43103 37.9749 2.43103C37.8327 2.43103 37.7733 2.48756 37.8429 2.55644C38.0014 2.71364 37.4855 3.24138 37.1732 3.24138C37.0456 3.24138 36.4935 2.78556 35.9464 2.22845C35.3992 1.67134 34.8079 1.21552 34.6321 1.21552C34.4562 1.21552 34.3124 1.12435 34.3124 1.01293C34.3124 0.901509 34.1286 0.810345 33.9039 0.810345C33.6793 0.810345 33.4955 0.719181 33.4955 0.607759C33.4955 0.496336 33.2197 0.405172 32.8827 0.405172C32.5457 0.405172 32.27 0.314009 32.27 0.202586C32.27 0.0824526 31.5211 0 30.4319 0C29.3426 0 28.5937 0.0824526 28.5937 0.202586ZM32.27 2.63362C32.27 2.74504 32.4538 2.83621 32.6785 2.83621C32.9032 2.83621 33.087 2.92737 33.087 3.03879C33.087 3.15022 33.2287 3.24138 33.4021 3.24138C33.5753 3.24138 34.4446 3.97069 35.3336 4.86207C36.2227 5.75345 37.0499 6.48276 37.1718 6.48276C37.2937 6.48276 38.1209 5.75345 39.01 4.86207C39.899 3.97069 40.7683 3.24138 40.9415 3.24138C41.1149 3.24138 41.2566 3.15022 41.2566 3.03879C41.2566 2.92737 41.4404 2.83621 41.6651 2.83621C41.8898 2.83621 42.0736 2.74504 42.0736 2.63362C42.0736 2.51551 42.7543 2.43103 43.7075 2.43103C44.6062 2.43103 45.3414 2.51085 45.3414 2.6083C45.3414 2.70574 45.6065 2.83823 45.9305 2.90245C46.6004 3.03535 48.6093 4.87483 48.6093 5.35537C48.6093 5.52979 48.7012 5.67241 48.8135 5.67241C48.9258 5.67241 49.0178 5.94591 49.0178 6.28017C49.0178 6.61444 49.1097 6.88793 49.222 6.88793C49.3386 6.88793 49.4262 7.49569 49.4262 8.30604C49.4262 9.11638 49.3386 9.72414 49.222 9.72414C49.1097 9.72414 49.0178 9.99763 49.0178 10.3319C49.0178 10.6662 48.9258 10.9397 48.8135 10.9397C48.7012 10.9397 48.6093 11.1019 48.6093 11.3001C48.6093 11.4984 48.4255 11.7919 48.2008 11.9526C47.9761 12.1132 47.7923 12.3624 47.7923 12.5065C47.7923 12.8184 44.0122 16.6121 43.7014 16.6121C43.5827 16.6121 42.7584 17.3414 41.8693 18.2328C40.9803 19.1241 40.1519 19.8534 40.0285 19.8534C39.9052 19.8534 39.263 20.4004 38.6015 21.069C37.9399 21.7375 37.2966 22.2845 37.1718 22.2845C37.047 22.2845 36.4036 21.7375 35.7421 21.069C35.0806 20.4004 34.4384 19.8534 34.3151 19.8534C34.1917 19.8534 33.3633 19.1241 32.4743 18.2328C31.5852 17.3414 30.7609 16.6121 30.6422 16.6121C30.3314 16.6121 26.5513 12.8184 26.5513 12.5065C26.5513 12.3624 26.3675 12.1132 26.1428 11.9526C25.9181 11.7919 25.7343 11.4984 25.7343 11.3001C25.7343 11.1019 25.6424 10.9397 25.5301 10.9397C25.4177 10.9397 25.3258 10.6662 25.3258 10.3319C25.3258 9.99763 25.2339 9.72414 25.1216 9.72414C25.005 9.72414 24.9174 9.11638 24.9174 8.30604C24.9174 7.49569 25.005 6.88793 25.1216 6.88793C25.2339 6.88793 25.3258 6.61444 25.3258 6.28017C25.3258 5.94591 25.4177 5.67241 25.5301 5.67241C25.6424 5.67241 25.7343 5.53324 25.7343 5.36327C25.7343 4.96113 27.4681 3.24138 27.8735 3.24138C28.0449 3.24138 28.1852 3.15022 28.1852 3.03879C28.1852 2.92737 28.369 2.83621 28.5937 2.83621C28.8184 2.83621 29.0022 2.74504 29.0022 2.63362C29.0022 2.51551 29.6829 2.43103 30.6361 2.43103C31.5893 2.43103 32.27 2.51551 32.27 2.63362ZM29.4107 4.25431C29.4107 4.36573 29.2687 4.4569 29.0951 4.4569C28.6864 4.4569 27.7767 5.35922 27.7767 5.76459C27.7767 5.93679 27.6848 6.07759 27.5725 6.07759C27.4602 6.07759 27.3682 6.25991 27.3682 6.48276C27.3682 6.7056 27.2763 6.88793 27.164 6.88793C27.0437 6.88793 26.9598 7.60184 26.9598 8.6243C26.9598 10.6125 27.1452 10.9397 28.2728 10.9397H29.0022V9.92672C29.0022 9.36961 28.9103 8.91379 28.7979 8.91379C28.6856 8.91379 28.5937 8.73147 28.5937 8.50862C28.5937 8.28578 28.6856 8.10345 28.7979 8.10345C28.9103 8.10345 29.0022 7.86845 29.0022 7.58118C29.0022 7.23658 29.2801 6.79373 29.8191 6.28017C30.672 5.4674 30.843 4.83573 30.3442 4.34122C30.0097 4.00918 29.4107 3.95347 29.4107 4.25431ZM0.408481 20.6638C0.408481 20.8866 0.316573 21.069 0.204241 21.069C0.0706673 21.069 0 24.6481 0 31.4009C0 38.1537 0.0706673 41.7328 0.204241 41.7328C0.316573 41.7328 0.408481 41.9151 0.408481 42.1379C0.408481 42.5307 0.54471 42.5431 4.85664 42.5431C9.07053 42.5431 9.32032 42.5218 9.59931 42.1379C9.76127 41.9151 10.0572 41.7328 10.2572 41.7328C10.4569 41.7328 10.6205 41.5895 10.6205 41.4145C10.6205 41.2393 10.7518 40.9658 10.9124 40.8067C11.2422 40.4794 12.6629 40.4091 12.6629 40.7198C12.6629 40.8312 12.9386 40.9224 13.2756 40.9224C13.6126 40.9224 13.8884 41.0136 13.8884 41.125C13.8884 41.2364 14.0722 41.3276 14.2968 41.3276C14.5215 41.3276 14.7053 41.4188 14.7053 41.5302C14.7053 41.6416 14.8891 41.7328 15.1138 41.7328C15.3385 41.7328 15.5223 41.8239 15.5223 41.9353C15.5223 42.0468 15.6859 42.1379 15.8856 42.1379C16.0856 42.1379 16.3815 42.3203 16.5435 42.5431C16.7055 42.7659 17.0014 42.9483 17.2013 42.9483C17.4011 42.9483 17.5647 43.0394 17.5647 43.1509C17.5647 43.2623 17.7283 43.3534 17.928 43.3534C18.128 43.3534 18.4239 43.5358 18.5859 43.7586C18.7479 43.9815 19.0438 44.1638 19.2438 44.1638C19.4435 44.1638 19.6071 44.255 19.6071 44.3664C19.6071 44.4778 19.7909 44.569 20.0156 44.569C20.2402 44.569 20.4241 44.6601 20.4241 44.7716C20.4241 44.883 20.5446 44.9741 20.6918 44.9741C20.8393 44.9741 21.1571 45.1565 21.3983 45.3793C21.6393 45.6022 21.9783 45.7845 22.1515 45.7845C22.3247 45.7845 22.4665 45.8756 22.4665 45.9871C22.4665 46.0985 22.7422 46.1897 23.0792 46.1897C23.4162 46.1897 23.6919 46.2808 23.6919 46.3922C23.6919 46.5037 24.054 46.5948 24.4968 46.5948C24.9396 46.5948 25.3585 46.686 25.428 46.7974C25.5019 46.9161 26.6896 47 28.2994 47C29.9934 47 31.0446 46.9224 31.0446 46.7974C31.0446 46.686 31.3607 46.5948 31.7474 46.5948C32.134 46.5948 32.5069 46.5037 32.5764 46.3922C32.6458 46.2808 32.8809 46.1897 33.099 46.1897C33.3172 46.1897 33.4955 46.0985 33.4955 45.9871C33.4955 45.8756 33.7712 45.7845 34.1082 45.7845C34.4452 45.7845 34.7209 45.6933 34.7209 45.5819C34.7209 45.4705 34.9047 45.3793 35.1294 45.3793C35.3541 45.3793 35.5379 45.2881 35.5379 45.1767C35.5379 45.0653 35.7217 44.9741 35.9464 44.9741C36.171 44.9741 36.3548 44.883 36.3548 44.7716C36.3548 44.6601 36.5387 44.569 36.7633 44.569C36.988 44.569 37.1718 44.4778 37.1718 44.3664C37.1718 44.255 37.4475 44.1638 37.7845 44.1638C38.1215 44.1638 38.3972 44.0726 38.3972 43.9612C38.3972 43.8498 38.5811 43.7586 38.8057 43.7586C39.0304 43.7586 39.2142 43.6675 39.2142 43.556C39.2142 43.4446 39.398 43.3534 39.6227 43.3534C39.8474 43.3534 40.0312 43.2623 40.0312 43.1509C40.0312 43.0394 40.3069 42.9483 40.6439 42.9483C40.9809 42.9483 41.2566 42.8571 41.2566 42.7457C41.2566 42.6343 41.4404 42.5431 41.6651 42.5431C41.8898 42.5431 42.0736 42.4519 42.0736 42.3405C42.0736 42.2291 42.2574 42.1379 42.4821 42.1379C42.7067 42.1379 42.8905 42.0468 42.8905 41.9353C42.8905 41.8239 43.0744 41.7328 43.299 41.7328C43.5237 41.7328 43.7075 41.6416 43.7075 41.5302C43.7075 41.4188 43.9832 41.3276 44.3202 41.3276C44.6572 41.3276 44.9329 41.2364 44.9329 41.125C44.9329 41.0136 45.1168 40.9224 45.3414 40.9224C45.5661 40.9224 45.7499 40.8312 45.7499 40.7198C45.7499 40.6084 45.9337 40.5172 46.1584 40.5172C46.383 40.5172 46.5669 40.4261 46.5669 40.3147C46.5669 40.2032 46.7507 40.1121 46.9753 40.1121C47.2 40.1121 47.3838 40.0209 47.3838 39.9095C47.3838 39.7981 47.6595 39.7069 47.9965 39.7069C48.3335 39.7069 48.6093 39.6157 48.6093 39.5043C48.6093 39.3929 48.7931 39.3017 49.0178 39.3017C49.2424 39.3017 49.4262 39.2106 49.4262 39.0991C49.4262 38.9877 49.6101 38.8966 49.8347 38.8966C50.0594 38.8966 50.2432 38.8054 50.2432 38.694C50.2432 38.5825 50.5189 38.4914 50.8559 38.4914C51.1929 38.4914 51.4686 38.4002 51.4686 38.2888C51.4686 38.1774 51.6525 38.0862 51.8771 38.0862C52.1018 38.0862 52.2856 37.995 52.2856 37.8836C52.2856 37.7722 52.4694 37.681 52.6941 37.681C52.9188 37.681 53.1026 37.5899 53.1026 37.4784C53.1026 37.367 53.2864 37.2759 53.5111 37.2759C53.7357 37.2759 53.9195 37.1847 53.9195 37.0733C53.9195 36.9619 54.1953 36.8707 54.5323 36.8707C54.8692 36.8707 55.145 36.7795 55.145 36.6681C55.145 36.5567 55.2859 36.4655 55.4581 36.4655C55.8647 36.4655 57.1874 35.1536 57.1874 34.7502C57.1874 34.5794 57.2793 34.4397 57.3916 34.4397C57.504 34.4397 57.5959 34.2628 57.5959 34.0464C57.5959 33.8301 57.6878 33.5969 57.8001 33.528C58.0666 33.3647 58.0666 31.6034 57.8001 31.6034C57.6878 31.6034 57.5959 31.3731 57.5959 31.0917C57.5959 30.5194 55.9834 28.7672 55.4566 28.7672C55.2853 28.7672 55.145 28.6761 55.145 28.5647C55.145 28.449 54.5322 28.3621 53.7153 28.3621C52.8983 28.3621 52.2856 28.449 52.2856 28.5647C52.2856 28.6761 52.0099 28.7672 51.6729 28.7672C51.3359 28.7672 51.0602 28.8584 51.0602 28.9698C51.0602 29.0813 50.7844 29.1724 50.4474 29.1724C50.1104 29.1724 49.8347 29.2636 49.8347 29.375C49.8347 29.4864 49.559 29.5776 49.222 29.5776C48.885 29.5776 48.6093 29.6688 48.6093 29.7802C48.6093 29.8916 48.3335 29.9828 47.9965 29.9828C47.6595 29.9828 47.3838 30.0739 47.3838 30.1853C47.3838 30.2968 47.1081 30.3879 46.7711 30.3879C46.4341 30.3879 46.1584 30.4791 46.1584 30.5905C46.1584 30.7019 45.8827 30.7931 45.5457 30.7931C45.2087 30.7931 44.9329 30.8843 44.9329 30.9957C44.9329 31.1071 44.6572 31.1983 44.3202 31.1983C43.9832 31.1983 43.7075 31.2894 43.7075 31.4009C43.7075 31.5123 43.4318 31.6034 43.0948 31.6034C42.7578 31.6034 42.4821 31.6946 42.4821 31.806C42.4821 31.9175 42.2063 32.0086 41.8693 32.0086H41.2566V30.7931C41.2566 30.1179 41.1659 29.5776 41.0524 29.5776C40.94 29.5776 40.8481 29.4378 40.8481 29.267C40.8481 28.8637 39.5255 27.5517 39.1188 27.5517C38.9466 27.5517 38.8057 27.4606 38.8057 27.3491C38.8057 27.2199 37.1038 27.1466 34.1082 27.1466C31.1126 27.1466 29.4107 27.0732 29.4107 26.944C29.4107 26.8325 29.2268 26.7414 29.0022 26.7414C28.7775 26.7414 28.5937 26.6502 28.5937 26.5388C28.5937 26.4274 28.4099 26.3362 28.1852 26.3362C27.9605 26.3362 27.7767 26.245 27.7767 26.1336C27.7767 26.0222 27.6131 25.931 27.4134 25.931C27.2134 25.931 26.9175 25.7487 26.7555 25.5259C26.5936 25.303 26.2976 25.1207 26.0977 25.1207C25.8979 25.1207 25.7343 25.0295 25.7343 24.9181C25.7343 24.8067 25.5505 24.7155 25.3258 24.7155C25.1012 24.7155 24.9174 24.6244 24.9174 24.5129C24.9174 24.4015 24.7538 24.3103 24.554 24.3103C24.3541 24.3103 24.0581 24.128 23.8962 23.9052C23.7342 23.6823 23.4382 23.5 23.2383 23.5C23.0385 23.5 22.875 23.4088 22.875 23.2974C22.875 23.186 22.5992 23.0948 22.2622 23.0948C21.9252 23.0948 21.6495 23.0037 21.6495 22.8922C21.6495 22.7808 21.19 22.6897 20.6283 22.6897C20.0613 22.6897 19.6071 22.5965 19.6071 22.4802C19.6071 22.3422 18.1809 22.2782 15.4208 22.2928C11.0351 22.3157 10.6205 22.2375 10.6205 21.3872C10.6205 21.2122 10.4788 21.069 10.3056 21.069C10.1324 21.069 9.79334 20.8866 9.55233 20.6638C9.14222 20.285 8.83157 20.2586 4.76105 20.2586C0.544709 20.2586 0.408481 20.2714 0.408481 20.6638ZM8.69473 22.574C9.12976 23.0053 9.12976 39.7964 8.69473 40.2277C8.46863 40.4522 7.73398 40.5172 5.42688 40.5172H2.45089V31.4009V22.2845H5.42688C7.73398 22.2845 8.46863 22.3495 8.69473 22.574ZM20.8325 24.9181C20.8325 25.0295 21.0881 25.1207 21.4001 25.1207C21.7335 25.1207 22.0892 25.288 22.2622 25.5259C22.4242 25.7487 22.7201 25.931 22.9201 25.931C23.1198 25.931 23.2834 26.0222 23.2834 26.1336C23.2834 26.245 23.4672 26.3362 23.6919 26.3362C23.9166 26.3362 24.1004 26.4274 24.1004 26.5388C24.1004 26.6502 24.2842 26.7414 24.5089 26.7414C24.7335 26.7414 24.9174 26.8325 24.9174 26.944C24.9174 27.0554 25.081 27.1466 25.2807 27.1466C25.4807 27.1466 25.7766 27.3289 25.9386 27.5517C26.1005 27.7746 26.3965 27.9569 26.5964 27.9569C26.7962 27.9569 26.9598 28.0481 26.9598 28.1595C26.9598 28.2709 27.1436 28.3621 27.3682 28.3621C27.5929 28.3621 27.7767 28.4532 27.7767 28.5647C27.7767 28.6761 27.9605 28.7672 28.1852 28.7672C28.4099 28.7672 28.5937 28.8584 28.5937 28.9698C28.5937 29.0989 30.264 29.1724 33.1958 29.1724H37.7982L38.5061 29.8748C39.0819 30.4459 39.2142 30.7309 39.2142 31.4009C39.2142 32.0708 39.0819 32.3559 38.5061 32.9269L37.7982 33.6293H31.4453C24.4066 33.6293 24.5089 33.6101 24.5089 34.9317C24.5089 35.5683 24.5701 35.6552 25.0195 35.6552C25.3003 35.6552 25.5301 35.7463 25.5301 35.8578C25.5301 35.9692 25.6679 36.0603 25.8364 36.0603C26.0049 36.0603 26.1428 35.9692 26.1428 35.8578C26.1428 35.7463 26.2862 35.6552 26.4612 35.6552C26.6362 35.6552 26.722 35.7476 26.6518 35.8604C26.5666 35.9969 28.3026 36.0614 31.8479 36.0533C35.0744 36.0458 37.1718 35.9649 37.1718 35.848C37.1718 35.7421 37.5319 35.6552 37.9718 35.6552C38.4117 35.6552 38.8023 35.5648 38.8398 35.4544C38.8772 35.3438 39.1607 35.2328 39.4695 35.2077C39.7783 35.1823 40.0312 35.0904 40.0312 35.0033C40.0312 34.9161 40.3069 34.8448 40.6439 34.8448C40.9809 34.8448 41.2566 34.7537 41.2566 34.6422C41.2566 34.5308 41.4404 34.4397 41.6651 34.4397C41.8898 34.4397 42.0736 34.3485 42.0736 34.2371C42.0736 34.1256 42.3493 34.0345 42.6863 34.0345C43.0233 34.0345 43.299 33.9433 43.299 33.8319C43.299 33.7205 43.5747 33.6293 43.9117 33.6293C44.2487 33.6293 44.5245 33.5381 44.5245 33.4267C44.5245 33.3153 44.8002 33.2241 45.1372 33.2241C45.4742 33.2241 45.7499 33.133 45.7499 33.0216C45.7499 32.9101 46.0256 32.819 46.3626 32.819C46.6996 32.819 46.9753 32.7278 46.9753 32.6164C46.9753 32.505 47.2511 32.4138 47.5881 32.4138C47.9251 32.4138 48.2008 32.3226 48.2008 32.2112C48.2008 32.0998 48.4765 32.0086 48.8135 32.0086C49.1505 32.0086 49.4262 31.9175 49.4262 31.806C49.4262 31.6946 49.702 31.6034 50.039 31.6034C50.376 31.6034 50.6517 31.5123 50.6517 31.4009C50.6517 31.2894 50.9274 31.1983 51.2644 31.1983C51.6014 31.1983 51.8771 31.1071 51.8771 30.9957C51.8771 30.8843 52.1528 30.7931 52.4898 30.7931C52.8268 30.7931 53.1026 30.7019 53.1026 30.5905C53.1026 30.4791 53.3783 30.3879 53.7153 30.3879C54.0523 30.3879 54.328 30.4791 54.328 30.5905C54.328 30.7019 54.5118 30.7931 54.7365 30.7931C55.0087 30.7931 55.145 30.9282 55.145 31.1983C55.145 31.4211 55.2369 31.6034 55.3492 31.6034C55.4615 31.6034 55.5535 32.0167 55.5535 32.5218C55.5535 33.2997 55.445 33.5477 54.8454 34.1425C54.4101 34.5742 53.9381 34.8448 53.6199 34.8448C53.3354 34.8448 53.1026 34.936 53.1026 35.0474C53.1026 35.1588 52.9188 35.25 52.6941 35.25C52.4694 35.25 52.2856 35.3412 52.2856 35.4526C52.2856 35.564 52.1018 35.6552 51.8771 35.6552C51.6525 35.6552 51.4686 35.7463 51.4686 35.8578C51.4686 35.9692 51.2848 36.0603 51.0602 36.0603C50.8355 36.0603 50.6517 36.1515 50.6517 36.2629C50.6517 36.3744 50.376 36.4655 50.039 36.4655C49.702 36.4655 49.4262 36.5567 49.4262 36.6681C49.4262 36.7795 49.2424 36.8707 49.0178 36.8707C48.7931 36.8707 48.6093 36.9619 48.6093 37.0733C48.6093 37.1847 48.4255 37.2759 48.2008 37.2759C47.9761 37.2759 47.7923 37.367 47.7923 37.4784C47.7923 37.5899 47.5166 37.681 47.1796 37.681C46.8426 37.681 46.5669 37.7722 46.5669 37.8836C46.5669 37.995 46.383 38.0862 46.1584 38.0862C45.9337 38.0862 45.7499 38.1774 45.7499 38.2888C45.7499 38.4002 45.5661 38.4914 45.3414 38.4914C45.1168 38.4914 44.9329 38.5825 44.9329 38.694C44.9329 38.8054 44.7491 38.8966 44.5245 38.8966C44.2998 38.8966 44.116 38.9877 44.116 39.0991C44.116 39.2106 43.8403 39.3017 43.5033 39.3017C43.1663 39.3017 42.8905 39.3929 42.8905 39.5043C42.8905 39.6157 42.7067 39.7069 42.4821 39.7069C42.2574 39.7069 42.0736 39.7981 42.0736 39.9095C42.0736 40.0209 41.8898 40.1121 41.6651 40.1121C41.4404 40.1121 41.2566 40.2032 41.2566 40.3147C41.2566 40.4261 41.0728 40.5172 40.8481 40.5172C40.6235 40.5172 40.4396 40.6084 40.4396 40.7198C40.4396 40.8312 40.1639 40.9224 39.8269 40.9224C39.4899 40.9224 39.2142 41.0136 39.2142 41.125C39.2142 41.2364 39.0304 41.3276 38.8057 41.3276C38.5811 41.3276 38.3972 41.4188 38.3972 41.5302C38.3972 41.6416 38.2134 41.7328 37.9888 41.7328C37.7641 41.7328 37.5803 41.8239 37.5803 41.9353C37.5803 42.0468 37.3505 42.1379 37.0697 42.1379C36.7888 42.1379 36.5591 42.2291 36.5591 42.3405C36.5591 42.4519 36.3293 42.5431 36.0485 42.5431C35.7676 42.5431 35.5379 42.6343 35.5379 42.7457C35.5379 42.8571 35.3541 42.9483 35.1294 42.9483C34.9047 42.9483 34.7209 43.0394 34.7209 43.1509C34.7209 43.2623 34.5371 43.3534 34.3124 43.3534C34.0878 43.3534 33.9039 43.4446 33.9039 43.556C33.9039 43.6675 33.6282 43.7586 33.2912 43.7586C32.9542 43.7586 32.6785 43.8498 32.6785 43.9612C32.6785 44.0726 32.4947 44.1638 32.27 44.1638C32.0454 44.1638 31.8615 44.255 31.8615 44.3664C31.8615 44.4778 31.402 44.569 30.8403 44.569C30.2787 44.569 29.8191 44.6601 29.8191 44.7716C29.8191 44.8897 29.1384 44.9741 28.1852 44.9741C27.232 44.9741 26.5513 44.8897 26.5513 44.7716C26.5513 44.6601 26.0917 44.569 25.5301 44.569C24.9684 44.569 24.5089 44.4778 24.5089 44.3664C24.5089 44.255 24.3251 44.1638 24.1004 44.1638C23.8757 44.1638 23.6919 44.0726 23.6919 43.9612C23.6919 43.8498 23.4364 43.7586 23.1243 43.7586C22.791 43.7586 22.4352 43.5913 22.2622 43.3534C22.1003 43.1306 21.8043 42.9483 21.6044 42.9483C21.4046 42.9483 21.241 42.8571 21.241 42.7457C21.241 42.6343 21.0774 42.5431 20.8777 42.5431C20.6777 42.5431 20.3818 42.3608 20.2198 42.1379C20.0579 41.9151 19.7619 41.7328 19.562 41.7328C19.3622 41.7328 19.1986 41.6416 19.1986 41.5302C19.1986 41.4188 19.035 41.3276 18.8353 41.3276C18.6353 41.3276 18.3394 41.1453 18.1774 40.9224C18.0155 40.6996 17.7195 40.5172 17.5196 40.5172C17.3198 40.5172 17.1562 40.4261 17.1562 40.3147C17.1562 40.2032 16.9926 40.1121 16.7929 40.1121C16.5929 40.1121 16.297 39.9297 16.135 39.7069C15.962 39.4691 15.6062 39.3017 15.2729 39.3017C14.9608 39.3017 14.7053 39.2106 14.7053 39.0991C14.7053 38.9877 14.4296 38.8966 14.0926 38.8966C13.7556 38.8966 13.4799 38.8054 13.4799 38.694C13.4799 38.5825 13.1122 38.4914 12.6629 38.4914C12.2136 38.4914 11.846 38.3947 11.846 38.2768C11.846 38.1589 11.754 38.1186 11.6417 38.1875C11.5071 38.27 11.4375 35.9949 11.4375 31.5141V24.7155H16.135C19.1306 24.7155 20.8325 24.7889 20.8325 24.9181Z" fill="black"/>
</svg>
