<svg width="123" height="80" viewBox="0 0 123 80" fill="none" xmlns="http://www.w3.org/2000/svg">
<path d="M11.7775 61.6673C11.7775 61.6673 11.7775 60.4353 12.5915 59.1593H8.23551C9.00551 60.0173 9.07151 61.2933 9.07151 61.6013V66.0453H4.05551V61.6673C4.05551 61.6673 4.05551 60.4353 4.86951 59.1593H0.535509C1.32751 60.0833 1.34951 61.4693 1.34951 61.6453V72.0073C1.34951 72.1833 1.32751 73.5693 0.535509 74.4933H4.86951C4.05551 73.2173 4.05551 71.9853 4.05551 71.9853V67.5193H9.07151V72.0513C9.07151 72.3593 9.00551 73.6133 8.23551 74.4933H12.5915C11.7775 73.2173 11.7775 71.9853 11.7775 71.9853V61.6673ZM19.8563 73.2393C18.6463 73.2393 17.7003 73.1293 16.8643 71.3473C16.7543 71.1273 16.7763 70.9953 16.7763 70.9953L21.7043 64.9013C21.7043 64.9013 20.7363 63.2953 18.2503 63.2953C15.0163 63.2953 13.6083 65.6493 13.6083 68.9053C13.6083 72.9973 15.4343 74.8453 18.2283 74.8453C20.6923 74.8453 21.7043 73.2393 21.9023 72.9973C21.2423 73.1293 20.5383 73.2393 19.8563 73.2393ZM15.5663 66.1113C15.6103 65.2533 15.8083 64.8133 16.5783 64.8573C18.4263 64.9673 19.5923 65.4953 18.4703 67.2113C18.0963 67.7833 16.5123 70.1593 16.5123 70.1593C16.5123 70.1373 15.5663 67.6733 15.5663 66.1113ZM22.6139 74.5593H26.8379C25.9799 73.1953 25.9359 72.1833 25.9359 71.9633V57.5973C25.9359 57.5973 22.6139 59.0933 22.6139 59.1373C23.4279 59.8853 23.4279 61.0953 23.4279 61.0953V71.9633C23.4279 72.3373 23.4279 73.5693 22.6139 74.5593ZM34.9739 63.3393C33.6319 63.3393 31.4759 65.0113 31.0139 65.3413V63.2953C31.0139 63.2953 27.6919 64.8133 27.6919 64.8353C28.4619 65.6053 28.5059 66.7493 28.5059 66.7933V76.2973C28.5059 76.6053 28.4839 77.8813 27.6919 78.8493H31.9159C31.1019 77.5293 31.0799 76.3633 31.0799 76.2313V74.2293C32.0699 74.6693 32.9719 74.8673 33.7859 74.8673C36.6679 74.8673 38.2299 72.2493 38.2299 68.9273C38.2299 66.3753 37.1739 63.3393 34.9739 63.3393ZM34.6659 73.1953C34.2919 73.4813 33.8519 73.5913 33.4119 73.5913C32.0039 73.5033 31.2119 72.8653 31.0359 71.6553V66.0013C31.3879 65.8473 32.2019 65.6713 33.0159 65.6713C33.7199 65.6713 34.4459 65.8033 34.8199 66.2873C35.2599 66.8373 35.5019 68.2453 35.5019 69.6753C35.5019 71.2153 35.2159 72.7553 34.6659 73.1953ZM41.0454 62.3273L43.0474 60.1493C43.0474 60.1493 41.8374 59.5333 41.0894 58.1253L39.0214 60.1273C39.0214 60.1273 39.6814 61.5573 41.0454 62.3273ZM43.3114 74.5593C42.4974 73.2613 42.4754 72.0733 42.4754 71.9633L42.4534 63.2953L39.0654 64.8353C39.9014 65.5173 39.9014 66.7933 39.9014 66.7933V72.0293C39.9014 72.3373 39.8574 73.6133 39.0654 74.5593H43.3114ZM54.9879 74.5373C54.2399 73.0853 54.1739 72.2493 54.1739 72.0073C54.1739 70.0053 54.1519 68.0033 54.1519 66.0233C54.1519 64.0213 53.0959 63.1633 51.5779 63.1633C50.0819 63.1633 48.0139 64.8353 47.5519 65.2313V63.1633C47.5519 63.1633 44.2299 64.6593 44.2299 64.7033C45.0439 65.4513 45.0439 66.6613 45.0439 66.6613C45.0439 68.4433 45.0439 70.2253 45.0439 72.0073C45.0439 72.2933 44.9999 73.5913 44.2299 74.5373H48.4539C47.6399 73.2393 47.6179 72.0513 47.6179 71.9413L47.5739 65.8253C48.2999 65.5173 48.8939 65.3853 49.3999 65.3853C51.8199 65.3853 51.8199 67.1233 51.8199 67.1233C51.8199 68.7073 51.8199 70.3133 51.8199 71.9193C51.8199 72.0073 51.7759 72.6013 51.0059 74.5373H54.9879ZM66.3348 64.6593V62.0633C64.5748 62.0633 63.6508 63.2513 63.2548 64.0653C62.5508 63.5593 61.6488 63.2953 60.6368 63.2953C58.1508 63.2953 56.1048 65.0773 56.1048 66.9253C56.1048 68.5533 56.9628 69.8073 58.2388 70.4233C57.2928 70.7093 55.8188 71.5233 55.8188 72.4473C55.8188 73.1293 56.7208 73.7893 59.3388 74.0093C64.4208 74.4713 64.9928 75.4833 64.4208 76.0553C63.4088 77.0893 60.0208 76.8913 58.8548 74.8893L56.3688 77.2653C57.0288 78.1453 58.1948 78.8493 60.5048 78.8493C62.8588 78.8493 65.6748 76.4513 66.1808 74.6033C66.8408 72.1833 64.7068 72.3373 62.0668 72.3373C59.4928 72.3373 58.5908 71.8753 58.5908 71.2813C58.5908 71.0173 58.7228 70.7973 58.8108 70.6433C59.2948 70.8193 59.8228 70.8853 60.4168 70.8853C62.9248 70.8853 64.9268 69.9393 64.9708 67.2113C64.9708 66.1553 64.5308 65.2093 63.8048 64.5053C64.6628 64.1973 65.5208 64.2413 66.3348 64.6593ZM61.9128 69.5433C60.3068 69.5433 59.2288 69.1033 58.6568 67.2993C58.4368 66.6393 58.3048 66.1113 58.3048 65.7153C58.3048 65.0333 58.6568 64.6813 59.4488 64.6813C61.0108 64.6813 61.8248 65.4073 62.3968 67.2553C62.6168 67.9373 62.7268 68.4433 62.7268 68.8173C62.7268 69.3233 62.4848 69.5433 61.9128 69.5433ZM78.4762 61.6673C78.4762 61.6673 78.4762 60.4353 79.2902 59.1593H74.9342C75.7042 60.0173 75.7702 61.2933 75.7702 61.6013V66.0453H70.7542V61.6673C70.7542 61.6673 70.7542 60.4353 71.5682 59.1593H67.2342C68.0262 60.0833 68.0482 61.4693 68.0482 61.6453V72.0073C68.0482 72.1833 68.0262 73.5693 67.2342 74.4933H71.5682C70.7542 73.2173 70.7542 71.9853 70.7542 71.9853V67.5193H75.7702V72.0513C75.7702 72.3593 75.7042 73.6133 74.9342 74.4933H79.2902C78.4762 73.2173 78.4762 71.9853 78.4762 71.9853V61.6673ZM89.2605 71.6553C89.2605 69.8953 89.2605 68.4433 89.2605 66.6833C89.2605 66.2653 89.2165 64.6373 86.1805 63.4493C84.5525 62.8113 82.7265 62.9873 81.4725 64.2193L82.5505 66.9033C83.1665 65.6273 84.4425 64.5493 85.7625 64.5493C86.4445 64.5493 86.5985 66.3313 86.5545 66.8153C85.1025 67.5193 82.6385 68.7513 80.7245 69.7193C80.2405 69.9833 80.0425 70.4233 80.0425 70.8853C80.0425 72.4473 82.1545 74.6913 83.4965 74.6913C84.7065 74.6913 86.2465 73.1513 86.6865 72.7113V73.0853C86.6865 74.3393 87.6545 74.5593 87.6545 74.5593L90.0525 73.5473C89.2825 72.9313 89.2605 71.8533 89.2605 71.6553ZM84.7725 72.2933C84.4425 72.2933 84.1345 72.2713 83.8485 72.2053C83.3205 72.0953 82.9025 71.4353 82.9025 70.7533C82.9025 70.2473 83.1445 69.7193 83.7385 69.3453C85.5205 68.2453 86.2465 67.8053 86.5765 67.6073L86.6865 72.0073C86.2685 72.1833 85.4985 72.2933 84.7725 72.2933ZM101.683 74.5373C100.935 73.0853 100.869 72.2493 100.869 72.0073C100.869 70.0053 100.847 68.0033 100.847 66.0233C100.847 64.0213 99.7909 63.1633 98.2729 63.1633C96.7769 63.1633 94.7089 64.8353 94.2469 65.2313V63.1633C94.2469 63.1633 90.9249 64.6593 90.9249 64.7033C91.7389 65.4513 91.7389 66.6613 91.7389 66.6613C91.7389 68.4433 91.7389 70.2253 91.7389 72.0073C91.7389 72.2933 91.6949 73.5913 90.9249 74.5373H95.1489C94.3349 73.2393 94.3129 72.0513 94.3129 71.9413L94.2689 65.8253C94.9949 65.5173 95.5889 65.3853 96.0949 65.3853C98.5149 65.3853 98.5149 67.1233 98.5149 67.1233C98.5149 68.7073 98.5149 70.3133 98.5149 71.9193C98.5149 72.0073 98.4709 72.6013 97.7009 74.5373H101.683ZM112.876 73.3933C112.04 72.6453 112.04 71.4133 112.04 71.4133V57.7733L108.674 59.3353C109.51 60.0833 109.51 61.3153 109.51 61.3153V63.9773C108.542 63.5373 107.662 63.3393 106.892 63.3393C104.054 63.3393 102.58 65.9573 102.58 69.2793C102.58 71.8313 103.658 74.8673 105.814 74.8673C107.134 74.8673 109.048 73.3053 109.554 72.8873V74.7793C109.554 74.7793 112.876 73.4153 112.876 73.3933ZM109.532 72.2053C109.158 72.3813 108.454 72.5573 107.728 72.5573C107.046 72.5573 106.364 72.4033 105.968 71.9193C105.55 71.3693 105.33 69.9833 105.33 68.5753C105.33 67.0133 105.594 65.4293 106.188 64.9893C107.024 64.3513 108.608 64.5053 109.224 65.5173C109.4 65.7813 109.532 66.1993 109.532 66.4853V72.2053ZM119.146 68.1133C117.144 66.6393 115.714 65.7153 115.714 65.2093C115.714 64.9673 116 64.8573 116.638 64.8573C118.662 64.8573 120.73 67.1453 120.73 67.1453L121.72 64.4613C121.72 64.4613 120.95 63.2953 118.046 63.2953C115.56 63.2953 114.24 64.9453 114.24 66.0233C114.24 67.1013 114.526 68.2673 117.518 70.4233C119.52 71.7873 120.84 72.5353 120.84 73.0633C120.576 73.3273 120.268 73.4593 119.96 73.4593C117.1 73.4373 115.736 70.9513 115.736 70.9513L113.668 73.0633C113.668 73.0633 114.812 74.8673 117.848 74.8673C122.182 74.8673 122.534 72.6453 122.534 72.0733C122.534 70.5773 121.632 69.9613 119.146 68.1133Z" fill="#0E7762"/>
<path fill-rule="evenodd" clip-rule="evenodd" d="M37.3192 0.65451C36.195 1.34646 35.0796 3.42008 35.0683 4.83884C35.062 5.63443 34.9976 5.67817 34.2561 5.39353C32.7997 4.83471 30.8943 5.02807 29.685 5.85758C27.5376 7.33086 27.5266 7.40756 27.5266 20.9333V33.0416L25.7215 31.3756C23.5015 29.327 22.204 28.7447 20.2764 28.9317C16.2654 29.321 14.6514 33.8565 17.2389 37.4684C17.7802 38.2237 21.0578 41.6952 24.5228 45.1828C31.1888 51.8921 32.8914 53.1895 36.1602 54.0501C38.5659 54.6834 45.4197 54.7036 48.2471 54.0856C50.624 53.566 53.8981 52.3742 53.8981 52.0284C53.8981 51.8972 53.5685 51.4769 53.1657 51.0949L52.4332 50.4001L50.99 51.0445C50.1961 51.3992 48.0888 51.9134 46.3069 52.1875C41.4056 52.9416 36.4047 52.3704 33.7757 50.7564C31.0253 49.0673 20.3574 38.4421 18.7657 35.8062C17.4298 33.5934 18.42 31.076 20.6261 31.076C21.9924 31.076 22.6316 31.483 25.4336 34.1361C26.786 35.4166 28.0575 36.4623 28.2591 36.4598C29.5591 36.4424 29.5566 36.4674 29.6787 22.3223L29.7955 8.78733L30.5305 8.04531C30.9706 7.60123 31.6387 7.30328 32.196 7.30328C34.9367 7.30328 35.0613 7.77144 35.0613 18.0644V26.6385H36.1602H37.259V15.2453V3.85211L38.003 2.97854C39.0459 1.7544 40.8091 1.7544 41.852 2.97854L42.5961 3.85211V15.2453V26.6385H43.6949H44.7937V18.0952C44.7937 8.84756 44.8888 8.23168 46.4403 7.42151C47.465 6.88646 48.3924 7.07506 49.4244 8.02882C50.1198 8.67164 50.1308 8.80065 50.1308 16.3981V24.1147L50.9941 23.9065C51.4691 23.7918 51.9636 23.638 52.0929 23.5648C52.2223 23.4913 52.3284 21.4538 52.3284 19.0369C52.3284 14.7714 52.3522 14.6136 53.1412 13.6671C54.186 12.4135 55.9388 12.3032 56.9829 13.4252C57.6218 14.1121 57.6655 14.4668 57.6655 18.9643V23.7696L58.5916 24.2529C59.1011 24.5189 59.5956 24.7366 59.6904 24.7366C59.7855 24.7366 59.8624 22.276 59.8618 19.2689C59.8606 13.1606 59.6452 12.3846 57.5898 11.0911C56.545 10.4334 54.1402 10.3481 52.8778 10.924C52.4006 11.1418 52.3284 10.9928 52.3271 9.79371C52.3249 7.08996 50.2805 5.08797 47.52 5.08575C46.6886 5.08512 45.7349 5.2322 45.4008 5.41255C44.8577 5.70607 44.7937 5.63063 44.7937 4.69461C44.7937 3.28663 43.8569 1.59496 42.5964 0.726146C41.2335 -0.21272 38.7825 -0.246002 37.3192 0.65451ZM80.2692 0.726146C79.0088 1.59496 78.0719 3.28663 78.0719 4.69461C78.0719 5.63063 78.0079 5.70607 77.4648 5.41255C77.1307 5.2322 76.177 5.08512 75.3456 5.08575C72.5851 5.08797 70.5407 7.08996 70.5385 9.79371C70.5372 10.9928 70.465 11.1418 69.9878 10.924C68.7255 10.3481 66.3206 10.4334 65.2758 11.0911C63.2336 12.3764 63.0051 13.1805 63.0038 19.0806L63.0025 24.3604L64.1013 24.02L65.2002 23.6792V18.8749C65.2002 14.2624 65.2294 14.0427 65.9266 13.3809C66.962 12.3992 68.6394 12.4572 69.6193 13.5089C70.3429 14.2855 70.3853 14.5568 70.481 19.0245C70.5777 23.5433 70.6079 23.7306 71.2659 23.9087C72.7801 24.3189 72.7349 24.5496 72.7349 16.3921C72.7349 8.80096 72.7459 8.67164 73.4412 8.02882C74.482 7.06714 75.4003 6.88646 76.4526 7.43577C77.93 8.20728 78.0719 9.15819 78.0719 18.286V26.6385H79.1708H80.2696V15.2453V3.85211L81.0136 2.97854C82.0565 1.7544 83.8197 1.7544 84.8626 2.97854L85.6067 3.85211V15.2453V26.6385H86.6916H87.7766L87.8689 17.5763L87.9612 8.51442L88.7025 7.90869C89.7419 7.05953 91.4222 7.12356 92.3373 8.04753L93.0742 8.79145L93.1862 22.3226C93.3034 36.4763 93.3002 36.4424 94.6065 36.4598C94.8081 36.4623 96.0796 35.4166 97.4321 34.1361C100.234 31.483 100.873 31.076 102.24 31.076C104.446 31.076 105.436 33.5934 104.1 35.8062C102.504 38.4488 91.8394 49.0679 89.0786 50.7631C85.4126 53.0139 75.8071 53.0288 71.2191 50.7907L69.948 50.1707L69.2676 50.9013C68.8937 51.3032 68.6759 51.7761 68.7835 51.952C69.062 52.4072 72.2172 53.5607 74.6185 54.0856C77.4459 54.7036 84.2997 54.6834 86.7055 54.0501C89.9743 53.1895 91.6768 51.8921 98.3428 45.1828C101.808 41.6952 105.085 38.2237 105.627 37.4684C108.214 33.8565 106.6 29.321 102.589 28.9317C100.662 28.7447 99.3641 29.327 97.1442 31.3756L95.339 33.0416V20.9333C95.339 7.40756 95.328 7.33086 93.1806 5.85758C91.9713 5.02807 90.0659 4.83471 88.6095 5.39353C87.868 5.67817 87.8036 5.63443 87.7974 4.83884C87.7861 3.42008 86.6706 1.34646 85.5464 0.65451C84.0831 -0.246002 81.6321 -0.21272 80.2692 0.726146ZM51.5435 28.2889C47.3759 29.7597 46.0947 34.5332 48.5764 39.3452C49.4102 40.9624 50.7825 42.5272 55.2911 47.0038C58.4079 50.0981 61.0401 52.63 61.1402 52.63C61.2404 52.63 64.0756 49.8131 67.4405 46.3699C74.2654 39.387 75.2464 37.953 75.2464 34.9634C75.2464 31.089 71.9899 27.9063 68.0257 27.9063C65.9059 27.9063 64.4053 28.585 62.6286 30.347L61.1559 31.8079L59.454 30.2373C57.0925 28.0585 54.2089 27.3482 51.5435 28.2889Z" fill="#0E7762"/>
</svg>
